<?xml version="1.0" encoding="UTF-8" standalone="no"?>
<!DOCTYPE svg PUBLIC "-//W3C//DTD SVG 1.1//EN"
 "http://www.w3.org/Graphics/SVG/1.1/DTD/svg11.dtd">
<!-- Generated by graphviz version 2.43.0 (0)
 -->
<!-- Title: %3 Pages: 1 -->
<svg width="4794pt" height="3600pt"
 viewBox="0.00 0.00 1150.55 864.00" xmlns="http://www.w3.org/2000/svg" xmlns:xlink="http://www.w3.org/1999/xlink">
<g id="graph0" class="graph" transform="scale(2.26 2.26) rotate(0) translate(4 1585.75)">
<title>%3</title>
<polygon fill="#ffffff" stroke="transparent" points="-4,4 -4,-1585.75 2113,-1585.75 2113,4 -4,4"/>
<g id="clust1" class="cluster">
<title>cluster_inputs</title>
<polygon fill="#ffffff" stroke="#7f8c8d" stroke-dasharray="5,2" points="8,-35.05 8,-1546.7 193,-1546.7 193,-35.05 8,-35.05"/>
<text text-anchor="middle" x="100.5" y="-1531.5" font-family="Helvetica,sans-Serif" font-weight="bold" font-size="14.00">INPUT LAYER</text>
</g>
<g id="clust2" class="cluster">
<title>cluster_pipeline</title>
<polygon fill="#ffffff" stroke="#16a085" points="868,-573.99 868,-1007.76 1370,-1007.76 1370,-573.99 868,-573.99"/>
<text text-anchor="middle" x="1119" y="-992.56" font-family="Helvetica,sans-Serif" font-weight="bold" font-size="14.00">CORE PIPELINE &amp; VALIDATION</text>
</g>
<g id="clust3" class="cluster">
<title>cluster_output</title>
<polygon fill="#ffffff" stroke="#7f8c8d" stroke-dasharray="5,2" points="1504.5,-854.41 1504.5,-1183.03 2095,-1183.03 2095,-854.41 1504.5,-854.41"/>
<text text-anchor="middle" x="1799.75" y="-1167.83" font-family="Helvetica,sans-Serif" font-weight="bold" font-size="14.00">SIMULATION OUTPUT</text>
</g>
<g id="clust4" class="cluster">
<title>cluster_hardware</title>
<polygon fill="#ffffff" stroke="#2980b9" stroke-dasharray="1,5" points="1490,-490.74 1490,-819.36 2101,-819.36 2101,-490.74 1490,-490.74"/>
<text text-anchor="middle" x="1795.5" y="-804.16" font-family="Helvetica,sans-Serif" font-weight="bold" font-size="14.00">REAL&#45;HARDWARE PATH (WOKWI SCHEMATIC)</text>
</g>
<!-- dash_in -->
<g id="node1" class="node">
<title>dash_in</title>
<path fill="#f8f9fa" stroke="#2c3e50" stroke-width="2" d="M144.5,-1350.05C144.5,-1350.05 55.5,-1350.05 55.5,-1350.05 49.5,-1350.05 43.5,-1344.05 43.5,-1338.05 43.5,-1338.05 43.5,-1326.05 43.5,-1326.05 43.5,-1320.05 49.5,-1314.05 55.5,-1314.05 55.5,-1314.05 144.5,-1314.05 144.5,-1314.05 150.5,-1314.05 156.5,-1320.05 156.5,-1326.05 156.5,-1326.05 156.5,-1338.05 156.5,-1338.05 156.5,-1344.05 150.5,-1350.05 144.5,-1350.05"/>
<text text-anchor="middle" x="100" y="-1335.45" font-family="Helvetica,sans-Serif" font-size="12.00">Dashboard UI</text>
<text text-anchor="middle" x="100" y="-1322.45" font-family="Helvetica,sans-Serif" font-size="12.00">(Read&#45;Only State)</text>
</g>
<!-- moveto -->
<g id="node8" class="node">
<title>moveto</title>
<polygon fill="#e8f8f5" stroke="#16a085" stroke-width="2" points="838.5,-758.05 611.5,-758.05 611.5,-754.05 607.5,-754.05 607.5,-750.05 611.5,-750.05 611.5,-730.05 607.5,-730.05 607.5,-726.05 611.5,-726.05 611.5,-722.05 838.5,-722.05 838.5,-758.05"/>
<polyline fill="none" stroke="#16a085" stroke-width="2" points="611.5,-754.05 615.5,-754.05 615.5,-750.05 611.5,-750.05 "/>
<polyline fill="none" stroke="#16a085" stroke-width="2" points="611.5,-730.05 615.5,-730.05 615.5,-726.05 611.5,-726.05 "/>
<text text-anchor="middle" x="725" y="-743.65" font-family="Helvetica,sans-Serif" font-weight="bold" font-size="13.00">moveTo(targetX, targetY, targetZ)</text>
<text text-anchor="middle" x="725" y="-729.65" font-family="Helvetica,sans-Serif" font-weight="bold" font-size="13.00">[Core Architectural Primitive]</text>
</g>
<!-- dash_in&#45;&gt;moveto -->
<g id="edge1" class="edge">
<title>dash_in&#45;&gt;moveto</title>
<path fill="none" stroke="#34495e" stroke-width="1.5" d="M119.99,-1314.01C209.91,-1228.56 592.98,-864.56 697.54,-765.2"/>
<polygon fill="#34495e" stroke="#34495e" stroke-width="1.5" points="700.02,-767.67 704.86,-758.24 695.2,-762.59 700.02,-767.67"/>
</g>
<!-- joy -->
<g id="node2" class="node">
<title>joy</title>
<path fill="#f8f9fa" stroke="#2c3e50" stroke-width="2" d="M147.5,-1113.05C147.5,-1113.05 52.5,-1113.05 52.5,-1113.05 46.5,-1113.05 40.5,-1107.05 40.5,-1101.05 40.5,-1101.05 40.5,-1089.05 40.5,-1089.05 40.5,-1083.05 46.5,-1077.05 52.5,-1077.05 52.5,-1077.05 147.5,-1077.05 147.5,-1077.05 153.5,-1077.05 159.5,-1083.05 159.5,-1089.05 159.5,-1089.05 159.5,-1101.05 159.5,-1101.05 159.5,-1107.05 153.5,-1113.05 147.5,-1113.05"/>
<text text-anchor="middle" x="100" y="-1098.45" font-family="Helvetica,sans-Serif" font-size="12.00">GUI Joystick</text>
<text text-anchor="middle" x="100" y="-1085.45" font-family="Helvetica,sans-Serif" font-size="12.00">(2D Pad + Z Slider)</text>
</g>
<!-- joy&#45;&gt;moveto -->
<g id="edge2" class="edge">
<title>joy&#45;&gt;moveto</title>
<path fill="none" stroke="#34495e" stroke-width="1.5" d="M132.75,-1076.96C236.8,-1017.67 567.46,-829.25 683.38,-763.2"/>
<polygon fill="#34495e" stroke="#34495e" stroke-width="1.5" points="685.36,-766.1 692.31,-758.11 681.89,-760.02 685.36,-766.1"/>
</g>
<!-- key -->
<g id="node3" class="node">
<title>key</title>
<path fill="#f8f9fa" stroke="#2c3e50" stroke-width="2" d="M153.5,-877.05C153.5,-877.05 46.5,-877.05 46.5,-877.05 40.5,-877.05 34.5,-871.05 34.5,-865.05 34.5,-865.05 34.5,-853.05 34.5,-853.05 34.5,-847.05 40.5,-841.05 46.5,-841.05 46.5,-841.05 153.5,-841.05 153.5,-841.05 159.5,-841.05 165.5,-847.05 165.5,-853.05 165.5,-853.05 165.5,-865.05 165.5,-865.05 165.5,-871.05 159.5,-877.05 153.5,-877.05"/>
<text text-anchor="middle" x="100" y="-862.45" font-family="Helvetica,sans-Serif" font-size="12.00">Keyboard Controls</text>
<text text-anchor="middle" x="100" y="-849.45" font-family="Helvetica,sans-Serif" font-size="12.00">(WASD + Q/E + Shift)</text>
</g>
<!-- key&#45;&gt;moveto -->
<g id="edge3" class="edge">
<title>key&#45;&gt;moveto</title>
<path fill="none" stroke="#34495e" stroke-width="1.5" d="M165.62,-846.71C273.24,-826.15 490.13,-784.72 619.65,-759.99"/>
<polygon fill="#34495e" stroke="#34495e" stroke-width="1.5" points="620.42,-763.4 629.59,-758.09 619.11,-756.52 620.42,-763.4"/>
</g>
<!-- v_key -->
<g id="node4" class="node">
<title>v_key</title>
<path fill="#f8f9fa" stroke="#2c3e50" stroke-width="2" d="M150,-640.05C150,-640.05 50,-640.05 50,-640.05 44,-640.05 38,-634.05 38,-628.05 38,-628.05 38,-616.05 38,-616.05 38,-610.05 44,-604.05 50,-604.05 50,-604.05 150,-604.05 150,-604.05 156,-604.05 162,-610.05 162,-616.05 162,-616.05 162,-628.05 162,-628.05 162,-634.05 156,-640.05 150,-640.05"/>
<text text-anchor="middle" x="100" y="-625.45" font-family="Helvetica,sans-Serif" font-size="12.00">Deterministic Voice</text>
<text text-anchor="middle" x="100" y="-612.45" font-family="Helvetica,sans-Serif" font-size="12.00">(Keyword Grammar)</text>
</g>
<!-- v_key&#45;&gt;moveto -->
<g id="edge4" class="edge">
<title>v_key&#45;&gt;moveto</title>
<path fill="none" stroke="#34495e" stroke-width="1.5" d="M162.16,-633.64C268.3,-653.74 487.81,-695.32 618.83,-720.13"/>
<polygon fill="#34495e" stroke="#34495e" stroke-width="1.5" points="618.41,-723.62 628.89,-722.04 619.71,-716.74 618.41,-723.62"/>
</g>
<!-- v_age -->
<g id="node5" class="node">
<title>v_age</title>
<path fill="#f8f9fa" stroke="#2c3e50" stroke-width="2" d="M155.5,-404.05C155.5,-404.05 44.5,-404.05 44.5,-404.05 38.5,-404.05 32.5,-398.05 32.5,-392.05 32.5,-392.05 32.5,-380.05 32.5,-380.05 32.5,-374.05 38.5,-368.05 44.5,-368.05 44.5,-368.05 155.5,-368.05 155.5,-368.05 161.5,-368.05 167.5,-374.05 167.5,-380.05 167.5,-380.05 167.5,-392.05 167.5,-392.05 167.5,-398.05 161.5,-404.05 155.5,-404.05"/>
<text text-anchor="middle" x="100" y="-389.45" font-family="Helvetica,sans-Serif" font-size="12.00">Agentic Voice (Bonus)</text>
<text text-anchor="middle" x="100" y="-376.45" font-family="Helvetica,sans-Serif" font-size="12.00">(Free&#45;form Speech)</text>
</g>
<!-- groq -->
<g id="node7" class="node">
<title>groq</title>
<path fill="#fef9e7" stroke="#f39c12" stroke-width="2" d="M471,-447.05C471,-447.05 329,-447.05 329,-447.05 323,-447.05 317,-441.05 317,-435.05 317,-435.05 317,-423.05 317,-423.05 317,-417.05 323,-411.05 329,-411.05 329,-411.05 471,-411.05 471,-411.05 477,-411.05 483,-417.05 483,-423.05 483,-423.05 483,-435.05 483,-435.05 483,-441.05 477,-447.05 471,-447.05"/>
<text text-anchor="middle" x="400" y="-432.45" font-family="Helvetica,sans-Serif" font-size="12.00">Groq Tool&#45;Calling Layer</text>
<text text-anchor="middle" x="400" y="-419.45" font-family="Helvetica,sans-Serif" font-size="12.00">(LLM Router / JSON Parser)</text>
</g>
<!-- v_age&#45;&gt;groq -->
<g id="edge6" class="edge">
<title>v_age&#45;&gt;groq</title>
<path fill="none" stroke="#34495e" stroke-width="1.5" d="M167.51,-395.65C208.49,-401.56 261.64,-409.23 306.67,-415.73"/>
<polygon fill="#34495e" stroke="#34495e" stroke-width="1.5" points="306.34,-419.22 316.74,-417.18 307.34,-412.29 306.34,-419.22"/>
<text text-anchor="middle" x="251" y="-416.25" font-family="Helvetica,sans-Serif" font-size="11.00"> Unstructured Audio</text>
</g>
<!-- pin -->
<g id="node6" class="node">
<title>pin</title>
<path fill="#f8f9fa" stroke="#2c3e50" stroke-width="2" d="M172.5,-167.05C172.5,-167.05 27.5,-167.05 27.5,-167.05 21.5,-167.05 15.5,-161.05 15.5,-155.05 15.5,-155.05 15.5,-143.05 15.5,-143.05 15.5,-137.05 21.5,-131.05 27.5,-131.05 27.5,-131.05 172.5,-131.05 172.5,-131.05 178.5,-131.05 184.5,-137.05 184.5,-143.05 184.5,-143.05 184.5,-155.05 184.5,-155.05 184.5,-161.05 178.5,-167.05 172.5,-167.05"/>
<text text-anchor="middle" x="100" y="-152.45" font-family="Helvetica,sans-Serif" font-size="12.00">Autonomous PIN Sequencer</text>
<text text-anchor="middle" x="100" y="-139.45" font-family="Helvetica,sans-Serif" font-size="12.00">(Approach&#45;Touch&#45;Retract)</text>
</g>
<!-- pin&#45;&gt;moveto -->
<g id="edge5" class="edge">
<title>pin&#45;&gt;moveto</title>
<path fill="none" stroke="#34495e" stroke-width="1.5" d="M133.81,-167.08C202.32,-205.51 364.09,-300.29 483,-402.05 538.33,-449.41 549.96,-464.67 593.5,-523.05 641.53,-587.46 687.49,-670.51 709.86,-712.75"/>
<polygon fill="#34495e" stroke="#34495e" stroke-width="1.5" points="706.9,-714.63 714.65,-721.85 713.09,-711.37 706.9,-714.63"/>
</g>
<!-- groq&#45;&gt;moveto -->
<g id="edge7" class="edge">
<title>groq&#45;&gt;moveto</title>
<path fill="none" stroke="#34495e" stroke-width="1.5" d="M419.87,-447.16C454.36,-480.26 529.91,-552.79 593.5,-614.05 629.63,-648.85 671.32,-689.12 697.66,-714.59"/>
<polygon fill="#34495e" stroke="#34495e" stroke-width="1.5" points="695.37,-717.24 704.99,-721.68 700.24,-712.21 695.37,-717.24"/>
<text text-anchor="middle" x="547" y="-617.25" font-family="Helvetica,sans-Serif" font-size="11.00"> Strict JSON Action</text>
</g>
<!-- ik -->
<g id="node9" class="node">
<title>ik</title>
<path fill="#f8f9fa" stroke="#2c3e50" stroke-width="2" d="M1066,-758.05C1066,-758.05 888,-758.05 888,-758.05 882,-758.05 876,-752.05 876,-746.05 876,-746.05 876,-734.05 876,-734.05 876,-728.05 882,-722.05 888,-722.05 888,-722.05 1066,-722.05 1066,-722.05 1072,-722.05 1078,-728.05 1078,-734.05 1078,-734.05 1078,-746.05 1078,-746.05 1078,-752.05 1072,-758.05 1066,-758.05"/>
<text text-anchor="middle" x="977" y="-743.45" font-family="Helvetica,sans-Serif" font-size="12.00">IK Solver</text>
<text text-anchor="middle" x="977" y="-730.45" font-family="Helvetica,sans-Serif" font-size="12.00">(Damped Least Squares Jacobian)</text>
</g>
<!-- moveto&#45;&gt;ik -->
<g id="edge8" class="edge">
<title>moveto&#45;&gt;ik</title>
<path fill="none" stroke="#34495e" stroke-width="1.5" d="M838.57,-740.05C847.61,-740.05 856.73,-740.05 865.76,-740.05"/>
<polygon fill="#34495e" stroke="#34495e" stroke-width="1.5" points="865.89,-743.55 875.89,-740.05 865.89,-736.55 865.89,-743.55"/>
</g>
<!-- safety -->
<g id="node10" class="node">
<title>safety</title>
<path fill="#f9ebea" stroke="#c0392b" stroke-width="2" d="M1349.5,-770.05C1349.5,-770.05 1234.5,-770.05 1234.5,-770.05 1228.5,-770.05 1222.5,-764.05 1222.5,-758.05 1222.5,-758.05 1222.5,-722.05 1222.5,-722.05 1222.5,-716.05 1228.5,-710.05 1234.5,-710.05 1234.5,-710.05 1349.5,-710.05 1349.5,-710.05 1355.5,-710.05 1361.5,-716.05 1361.5,-722.05 1361.5,-722.05 1361.5,-758.05 1361.5,-758.05 1361.5,-764.05 1355.5,-770.05 1349.5,-770.05"/>
<text text-anchor="middle" x="1292" y="-756.45" font-family="Helvetica,sans-Serif" font-size="12.00">Safety Validator</text>
<text text-anchor="middle" x="1292" y="-743.45" font-family="Helvetica,sans-Serif" font-size="12.00">1. Joint&#45;Limit Clamping</text>
<text text-anchor="middle" x="1292" y="-730.45" font-family="Helvetica,sans-Serif" font-size="12.00">2. Workspace Bounds</text>
<text text-anchor="middle" x="1292" y="-717.45" font-family="Helvetica,sans-Serif" font-size="12.00">3. Reachability Check</text>
</g>
<!-- ik&#45;&gt;safety -->
<g id="edge9" class="edge">
<title>ik&#45;&gt;safety</title>
<path fill="none" stroke="#34495e" stroke-width="1.5" d="M1078.33,-740.05C1121.68,-740.05 1171.66,-740.05 1212.28,-740.05"/>
<polygon fill="#34495e" stroke="#34495e" stroke-width="1.5" points="1212.39,-743.55 1222.39,-740.05 1212.39,-736.55 1212.39,-743.55"/>
</g>
<!-- urdf -->
<g id="node11" class="node">
<title>urdf</title>
<path fill="#f8f9fa" stroke="#2c3e50" stroke-width="2" d="M1632,-986.05C1632,-986.05 1524,-986.05 1524,-986.05 1518,-986.05 1512,-980.05 1512,-974.05 1512,-974.05 1512,-962.05 1512,-962.05 1512,-956.05 1518,-950.05 1524,-950.05 1524,-950.05 1632,-950.05 1632,-950.05 1638,-950.05 1644,-956.05 1644,-962.05 1644,-962.05 1644,-974.05 1644,-974.05 1644,-980.05 1638,-986.05 1632,-986.05"/>
<text text-anchor="middle" x="1578" y="-971.45" font-family="Helvetica,sans-Serif" font-size="12.00">urdf&#45;loader</text>
<text text-anchor="middle" x="1578" y="-958.45" font-family="Helvetica,sans-Serif" font-size="12.00">(Transform Hierarchy)</text>
</g>
<!-- safety&#45;&gt;urdf -->
<g id="edge10" class="edge">
<title>safety&#45;&gt;urdf</title>
<path fill="none" stroke="#34495e" stroke-width="1.5" d="M1330.42,-770.09C1387.18,-815.66 1493.96,-901.39 1546.39,-943.48"/>
<polygon fill="#34495e" stroke="#34495e" stroke-width="1.5" points="1544.33,-946.31 1554.32,-949.84 1548.71,-940.85 1544.33,-946.31"/>
<text text-anchor="middle" x="1430" y="-890.25" font-family="Helvetica,sans-Serif" font-size="11.00"> Verified Joint Angles</text>
</g>
<!-- esp -->
<g id="node14" class="node">
<title>esp</title>
<path fill="#ebf5fb" stroke="#2980b9" stroke-width="2" d="M1646.5,-623.05C1646.5,-623.05 1509.5,-623.05 1509.5,-623.05 1503.5,-623.05 1497.5,-617.05 1497.5,-611.05 1497.5,-611.05 1497.5,-599.05 1497.5,-599.05 1497.5,-593.05 1503.5,-587.05 1509.5,-587.05 1509.5,-587.05 1646.5,-587.05 1646.5,-587.05 1652.5,-587.05 1658.5,-593.05 1658.5,-599.05 1658.5,-599.05 1658.5,-611.05 1658.5,-611.05 1658.5,-617.05 1652.5,-623.05 1646.5,-623.05"/>
<text text-anchor="middle" x="1578" y="-608.45" font-family="Helvetica,sans-Serif" font-size="12.00">ESP32 Microcontroller</text>
<text text-anchor="middle" x="1578" y="-595.45" font-family="Helvetica,sans-Serif" font-size="12.00">(WiFi / I2C Logic Rail 3.3V)</text>
</g>
<!-- safety&#45;&gt;esp -->
<g id="edge13" class="edge">
<title>safety&#45;&gt;esp</title>
<path fill="none" stroke="#2980b9" stroke-width="1.5" stroke-dasharray="5,2" d="M1356.38,-709.92C1408.95,-684.94 1482.51,-649.97 1529.96,-627.41"/>
<polygon fill="#2980b9" stroke="#2980b9" stroke-width="1.5" points="1531.56,-630.53 1539.09,-623.08 1528.55,-624.21 1531.56,-630.53"/>
<text text-anchor="middle" x="1430" y="-699.25" font-family="Helvetica,sans-Serif" font-size="11.00"> Control Signals</text>
</g>
<!-- three -->
<g id="node12" class="node">
<title>three</title>
<path fill="#f8f9fa" stroke="#2c3e50" stroke-width="2" d="M1833,-986.05C1833,-986.05 1735,-986.05 1735,-986.05 1729,-986.05 1723,-980.05 1723,-974.05 1723,-974.05 1723,-962.05 1723,-962.05 1723,-956.05 1729,-950.05 1735,-950.05 1735,-950.05 1833,-950.05 1833,-950.05 1839,-950.05 1845,-956.05 1845,-962.05 1845,-962.05 1845,-974.05 1845,-974.05 1845,-980.05 1839,-986.05 1833,-986.05"/>
<text text-anchor="middle" x="1784" y="-971.45" font-family="Helvetica,sans-Serif" font-size="12.00">Three.js Render</text>
<text text-anchor="middle" x="1784" y="-958.45" font-family="Helvetica,sans-Serif" font-size="12.00">(3D Scene Canvas)</text>
</g>
<!-- urdf&#45;&gt;three -->
<g id="edge11" class="edge">
<title>urdf&#45;&gt;three</title>
<path fill="none" stroke="#34495e" stroke-width="1.5" d="M1644.11,-968.05C1665.95,-968.05 1690.4,-968.05 1712.63,-968.05"/>
<polygon fill="#34495e" stroke="#34495e" stroke-width="1.5" points="1712.66,-971.55 1722.66,-968.05 1712.66,-964.55 1712.66,-971.55"/>
</g>
<!-- dash_out -->
<g id="node13" class="node">
<title>dash_out</title>
<path fill="#f8f9fa" stroke="#2c3e50" stroke-width="2" d="M2074.5,-986.05C2074.5,-986.05 1937.5,-986.05 1937.5,-986.05 1931.5,-986.05 1925.5,-980.05 1925.5,-974.05 1925.5,-974.05 1925.5,-962.05 1925.5,-962.05 1925.5,-956.05 1931.5,-950.05 1937.5,-950.05 1937.5,-950.05 2074.5,-950.05 2074.5,-950.05 2080.5,-950.05 2086.5,-956.05 2086.5,-962.05 2086.5,-962.05 2086.5,-974.05 2086.5,-974.05 2086.5,-980.05 2080.5,-986.05 2074.5,-986.05"/>
<text text-anchor="middle" x="2006" y="-971.45" font-family="Helvetica,sans-Serif" font-size="12.00">Live Telemetry Dashboard</text>
<text text-anchor="middle" x="2006" y="-958.45" font-family="Helvetica,sans-Serif" font-size="12.00">(Numerical Angles &amp; Feed)</text>
</g>
<!-- three&#45;&gt;dash_out -->
<g id="edge12" class="edge">
<title>three&#45;&gt;dash_out</title>
<path fill="none" stroke="#34495e" stroke-width="1.5" d="M1845.12,-968.05C1866.71,-968.05 1891.56,-968.05 1915.14,-968.05"/>
<polygon fill="#34495e" stroke="#34495e" stroke-width="1.5" points="1915.15,-971.55 1925.15,-968.05 1915.15,-964.55 1915.15,-971.55"/>
</g>
<!-- dash_out&#45;&gt;dash_in -->
<g id="edge16" class="edge">
<title>dash_out&#45;&gt;dash_in</title>
<path fill="none" stroke="#34495e" stroke-width="1.5" stroke-dasharray="1,5" d="M1990.21,-949.74C1970,-923.5 1934.53,-872.85 1919.5,-823.05 1908.7,-787.26 1927.85,-513.57 1901.5,-487.05 1109.12,310.36 362.25,-240.1 203,-397.05 188.66,-411.19 196.75,-1102.37 192.5,-1122.05 177.56,-1191.22 139.19,-1265.68 117.17,-1304.67"/>
<polygon fill="#34495e" stroke="#34495e" stroke-width="1.5" points="113.88,-1303.37 111.95,-1313.79 119.96,-1306.85 113.88,-1303.37"/>
<text text-anchor="middle" x="1150" y="-87.25" font-family="Helvetica,sans-Serif" font-size="11.00"> State Synchronization</text>
</g>
<!-- pca -->
<g id="node15" class="node">
<title>pca</title>
<path fill="#ebf5fb" stroke="#2980b9" stroke-width="2" d="M1840.5,-623.05C1840.5,-623.05 1727.5,-623.05 1727.5,-623.05 1721.5,-623.05 1715.5,-617.05 1715.5,-611.05 1715.5,-611.05 1715.5,-599.05 1715.5,-599.05 1715.5,-593.05 1721.5,-587.05 1727.5,-587.05 1727.5,-587.05 1840.5,-587.05 1840.5,-587.05 1846.5,-587.05 1852.5,-593.05 1852.5,-599.05 1852.5,-599.05 1852.5,-611.05 1852.5,-611.05 1852.5,-617.05 1846.5,-623.05 1840.5,-623.05"/>
<text text-anchor="middle" x="1784" y="-608.45" font-family="Helvetica,sans-Serif" font-size="12.00">PCA9685 PWM Driver</text>
<text text-anchor="middle" x="1784" y="-595.45" font-family="Helvetica,sans-Serif" font-size="12.00">(I2C Control)</text>
</g>
<!-- esp&#45;&gt;pca -->
<g id="edge14" class="edge">
<title>esp&#45;&gt;pca</title>
<path fill="none" stroke="#34495e" stroke-width="1.5" d="M1658.75,-605.05C1673.91,-605.05 1689.76,-605.05 1704.88,-605.05"/>
<polygon fill="#34495e" stroke="#34495e" stroke-width="1.5" points="1705.2,-608.55 1715.2,-605.05 1705.2,-601.55 1705.2,-608.55"/>
<text text-anchor="middle" x="1687" y="-608.25" font-family="Helvetica,sans-Serif" font-size="11.00"> I2C</text>
</g>
<!-- servos -->
<g id="node16" class="node">
<title>servos</title>
<path fill="#ebf5fb" stroke="#2980b9" stroke-width="2" d="M2080.5,-623.05C2080.5,-623.05 1931.5,-623.05 1931.5,-623.05 1925.5,-623.05 1919.5,-617.05 1919.5,-611.05 1919.5,-611.05 1919.5,-599.05 1919.5,-599.05 1919.5,-593.05 1925.5,-587.05 1931.5,-587.05 1931.5,-587.05 2080.5,-587.05 2080.5,-587.05 2086.5,-587.05 2092.5,-593.05 2092.5,-599.05 2092.5,-599.05 2092.5,-611.05 2092.5,-611.05 2092.5,-617.05 2086.5,-623.05 2080.5,-623.05"/>
<text text-anchor="middle" x="2006" y="-608.45" font-family="Helvetica,sans-Serif" font-size="12.00">6x Servo Motors</text>
<text text-anchor="middle" x="2006" y="-595.45" font-family="Helvetica,sans-Serif" font-size="12.00">(Dedicated 5&#45;6V Supply Rail)</text>
</g>
<!-- pca&#45;&gt;servos -->
<g id="edge15" class="edge">
<title>pca&#45;&gt;servos</title>
<path fill="none" stroke="#34495e" stroke-width="1.5" d="M1852.5,-605.05C1870.38,-605.05 1890.03,-605.05 1909.11,-605.05"/>
<polygon fill="#34495e" stroke="#34495e" stroke-width="1.5" points="1909.32,-608.55 1919.32,-605.05 1909.32,-601.55 1909.32,-608.55"/>
<text text-anchor="middle" x="1886" y="-608.25" font-family="Helvetica,sans-Serif" font-size="11.00"> PWM</text>
</g>
</g>
</svg>
